<svg width="61" height="35" viewBox="0 0 61 35" fill="none" xmlns="http://www.w3.org/2000/svg">
<mask id="path-1-inside-1_304_184" fill="white">
<path fill-rule="evenodd" clip-rule="evenodd" d="M4.93468e-06 17.5C6.05167 7.03848 17.3627 0 30.3176 0C43.2726 0 54.5836 7.03848 60.6353 17.5C54.5836 27.9615 43.2726 35 30.3176 35C17.3627 35 6.05167 27.9615 4.93468e-06 17.5Z"/>
</mask>
<path d="M4.93468e-06 17.5L-0.865601 16.9993L-1.15526 17.5L-0.865601 18.0007L4.93468e-06 17.5ZM60.6353 17.5L61.5009 18.0007L61.7905 17.5L61.5009 16.9993L60.6353 17.5ZM0.865611 18.0007C6.74588 7.8355 17.7341 1 30.3176 1V-1C16.9913 -1 5.35746 6.24146 -0.865601 16.9993L0.865611 18.0007ZM30.3176 1C42.9012 1 53.8894 7.8355 59.7696 18.0007L61.5009 16.9993C55.2778 6.24146 43.644 -1 30.3176 -1V1ZM59.7696 16.9993C53.8894 27.1645 42.9012 34 30.3176 34V36C43.644 36 55.2778 28.7585 61.5009 18.0007L59.7696 16.9993ZM30.3176 34C17.7341 34 6.74588 27.1645 0.865611 16.9993L-0.865601 18.0007C5.35746 28.7585 16.9913 36 30.3176 36V34Z" fill="white" mask="url(#path-1-inside-1_304_184)"/>
<circle cx="30.5" cy="17.5" r="10.5" fill="white"/>
</svg>
