<?xml version="1.0" encoding="UTF-8"?>
<svg id="Layer_4" xmlns="http://www.w3.org/2000/svg" viewBox="0 0 105 108">
  <defs>
    <style>
      .cls-1 {
        fill: #75adff;
      }
    </style>
  </defs>
  <polygon class="cls-1" points="40.36 64.18 48.56 75.13 40.36 86.07 32.16 75.13 40.36 64.18"/>
  <polygon class="cls-1" points="61.36 22.18 69.56 33.13 61.36 44.07 53.16 33.13 61.36 22.18"/>
  <path class="cls-1" d="M40.63,53.5c7.26,0,13.46,8.29,18.21,16.75.92,1.64.18-.38.18-.38l-16.53-33.27c-.79-1.59-3.06-1.59-3.85,0l-19.13,38.52h0c.81,0,1.55-.45,1.91-1.17,4.89-9.56,10.89-20.45,19.21-20.45Z"/>
  <path class="cls-1" d="M61.51,55.12c-7.52,0-13.91-8.91-18.73-17.69-.73-1.33-.17.3-.17.3l17.03,34.28c.79,1.59,3.06,1.59,3.85,0l19.13-38.52h0c-.81,0-1.55.45-1.91,1.17-4.89,9.56-10.89,20.45-19.21,20.45Z"/>
</svg>